<?xml version="1.0" encoding="utf-8"?>
<!-- Generator: Adobe Illustrator 21.0.0, SVG Export Plug-In . SVG Version: 6.00 Build 0)  -->
<svg version="1.1" id="图层_1" xmlns="http://www.w3.org/2000/svg" xmlns:xlink="http://www.w3.org/1999/xlink" x="0px" y="0px"
	 viewBox="0 0 24 24" style="enable-background:new 0 0 24 24;" xml:space="preserve">
<style type="text/css">
	.st0{fill:#57B29C;}
	.st1{fill:#61C8B2;}
	.st2{fill:#4D4D4D;}
	.st3{fill:#FFFFFF;}
	.st4{fill:#EF5750;}
	.st5{fill:#FFBF5C;}
	.st6{fill:#D34A4A;}
	.st7{opacity:0.5;fill:#EF5750;}
</style>
<g>
	<g>
		<path class="st0" d="M22.6,4.7H5.4c-0.7,0-1.4,0.6-1.4,1.4v9.7c0,0.7,0.6,1.4,1.4,1.4h17.2c0.7,0,1.4-0.6,1.4-1.4V6.1
			C24,5.3,23.4,4.7,22.6,4.7z"/>
		<path class="st1" d="M22.6,4H5.4C4.7,4,4.1,4.6,4.1,5.4V15c0,0.7,0.6,1.4,1.4,1.4h17.2c0.7,0,1.4-0.6,1.4-1.4V5.4
			C24,4.6,23.4,4,22.6,4z"/>
		<rect x="4.1" y="5.4" class="st2" width="19.9" height="2.5"/>
		<g>
			<rect x="5.5" y="9.8" class="st3" width="5" height="1.1"/>
			<rect x="11.3" y="9.8" class="st3" width="2.2" height="1.1"/>
			<rect x="14.3" y="9.8" class="st3" width="4.5" height="1.1"/>
			<rect x="19.8" y="9.8" class="st3" width="2.8" height="1.1"/>
		</g>
		<circle class="st4" cx="19.3" cy="13.8" r="1.3"/>
		<circle class="st5" cx="21" cy="13.8" r="1.3"/>
	</g>
	<g>
		<path class="st6" d="M12.1,12.6H1c-0.5,0-0.9,0.4-0.9,0.9v6.2c0,0.5,0.4,0.9,0.9,0.9h11.1c0.5,0,0.9-0.4,0.9-0.9v-6.2
			C12.9,13,12.5,12.6,12.1,12.6z"/>
		<path class="st4" d="M12.1,12H1c-0.5,0-0.9,0.4-0.9,0.9v6.2c0,0.5,0.4,0.9,0.9,0.9h11.1c0.5,0,0.9-0.4,0.9-0.9v-6.2
			C12.9,12.3,12.5,12,12.1,12z"/>
	</g>
	<rect x="1.2" y="12" class="st7" width="2.1" height="8"/>
	<g>
		<rect x="4.2" y="13" class="st3" width="5.3" height="1.5"/>
		<rect x="9.9" y="13.8" class="st3" width="2" height="0.7"/>
	</g>
	<rect x="4.2" y="15.9" class="st3" width="1.6" height="0.3"/>
	<rect x="6.2" y="15.9" class="st3" width="1.6" height="0.3"/>
	<rect x="8.3" y="15.9" class="st3" width="1.6" height="0.3"/>
	<rect x="10.3" y="15.9" class="st3" width="1.6" height="0.3"/>
	<circle class="st3" cx="4.5" cy="18.9" r="0.3"/>
	<circle class="st3" cx="5.3" cy="18.9" r="0.3"/>
	<circle class="st3" cx="6.1" cy="18.9" r="0.3"/>
</g>
</svg>
